<?xml version="1.0" standalone="no"?>
<!DOCTYPE svg PUBLIC "-//W3C//DTD SVG 1.1//EN" "http://www.w3.org/Graphics/SVG/1.1/DTD/svg11.dtd" >
<svg xmlns="http://www.w3.org/2000/svg" xmlns:xlink="http://www.w3.org/1999/xlink" version="1.1">
<metadata></metadata>
<defs>
<font id="banque_gothique_rr_extra_boRg" horiz-adv-x="989" >
<font-face units-per-em="2048" ascent="1638" descent="-410" />
<missing-glyph horiz-adv-x="444" />
<glyph horiz-adv-x="0" />
<glyph unicode="&#xd;" horiz-adv-x="444" />
<glyph unicode=" "  horiz-adv-x="444" />
<glyph unicode="&#x09;" horiz-adv-x="444" />
<glyph unicode="&#xa0;" horiz-adv-x="444" />
<glyph unicode="!" horiz-adv-x="614" d="M150 1366h434l-115 -799h-205zM182 82v287q0 65 40 77q16 5 44 5h201q71 0 81 -47q3 -14 3 -35v-287q0 -66 -40 -77q-17 -5 -44 -5h-201q-71 0 -81 46q-3 14 -3 36z" />
<glyph unicode="#" horiz-adv-x="1153" d="M61 532l33 185h191l37 205h-193l33 184h192l45 260h191l-45 -260h164l45 260h192l-47 -260h193l-33 -184h-193l-35 -205h191l-33 -185h-190l-45 -260h-193l47 260h-164l-47 -260h-190l45 260h-191zM475 717h164l37 205h-164z" />
<glyph unicode="$" horiz-adv-x="1229" d="M86 301v86l348 86v-151h363v215h-391q-166 0 -233 67.5t-67 233.5v227q0 165 67.5 233t232.5 68h92v272h241v-272h90q165 0 232 -68t67 -233v-88l-348 -74v141h-325v-213h389q165 0 233 -68t68 -233v-229q0 -166 -67.5 -233.5t-233.5 -67.5h-105v-344h-241v344h-113 q-166 0 -232.5 67.5t-66.5 233.5z" />
<glyph unicode="(" horiz-adv-x="791" d="M109 682q0 270 92 522q59 162 186 373h358q-152 -237 -215 -412q-86 -238 -86 -483t86 -483q63 -175 215 -412h-358q-131 222 -186 373q-92 253 -92 522z" />
<glyph unicode=")" horiz-adv-x="791" d="M45 -213q147 228 213 412q86 239 86 483t-86 483q-66 184 -213 412h358q132 -219 187 -373q90 -250 90 -522q0 -269 -90 -522q-53 -148 -187 -373h-358z" />
<glyph unicode="," horiz-adv-x="604" d="M88 82v287q0 82 84 82h260q84 0 84 -82v-324l-209 -426h-170l125 381h-90q-84 0 -84 82z" />
<glyph unicode="-" horiz-adv-x="702" d="M113 479v287h477v-287h-477z" />
<glyph unicode="." horiz-adv-x="604" d="M88 82v287q0 82 84 82h260q84 0 84 -82v-287q0 -82 -84 -82h-260q-84 0 -84 82z" />
<glyph unicode="/" horiz-adv-x="1073" d="M45 -96l731 1556h252l-733 -1556h-250z" />
<glyph unicode="0" horiz-adv-x="1141" d="M86 287v790q0 159 64 224t223 65h395q159 0 223 -65t64 -224v-790q0 -158 -64.5 -222.5t-222.5 -64.5h-395q-159 0 -223 64t-64 223zM420 322h301v722h-301v-722z" />
<glyph unicode="1" horiz-adv-x="582" d="M-27 1087v211l496 78v-1376h-334v1100z" />
<glyph unicode="2" horiz-adv-x="1106" d="M86 0v182q0 94 35 142l461 628v92h-148v-192l-336 68v178q0 104 25 159q50 109 250 109h270q210 0 255 -114q20 -51 20 -154v-90q0 -24 -1 -47l-2 -23q0 -56 -65 -158q-15 -24 -55 -78l-279 -380h168v122l336 -69q-3 -168 -19 -228q-27 -103 -143 -133q-56 -14 -211 -14 h-561z" />
<glyph unicode="3" horiz-adv-x="1065" d="M72 268v111l336 67v-124h237v141q0 90 -137 90h-162v303h109q135 0 135 90v98h-162v-102l-336 70v86q0 104 25 159q50 109 250 109h284q210 0 255 -114q20 -51 20 -154v-150q0 -97 -32 -147q-34 -54 -122 -84q113 -28 160 -91.5t47 -181.5v-176q0 -111 -23 -162 q-48 -106 -249 -106h-361q-211 0 -254 115q-20 51 -20 153z" />
<glyph unicode="4" horiz-adv-x="1067" d="M31 297v240l344 829h506v-766h155v-303h-155v-317h-334v317h-516zM373 600h174v416z" />
<glyph unicode="5" horiz-adv-x="1034" d="M72 268v111l336 70v-127h206v272h-508l44 772h792l-76 -322h-399l-16 -147h225q224 0 261 -137q11 -41 11 -131v-361q0 -114 -22 -162q-48 -106 -250 -106h-330q-211 0 -254 115q-20 51 -20 153z" />
<glyph unicode="6" horiz-adv-x="1083" d="M86 268v830q0 109 23 159q50 109 249 109h338q202 0 251 -109q22 -50 22 -188v-57l-334 -47v79h-215v-188h305q211 0 255 -115q19 -51 19 -153v-320q0 -109 -24 -162q-48 -106 -250 -106h-367q-125 0 -184 35q-88 52 -88 233zM420 322h244v231h-244v-231z" />
<glyph unicode="7" horiz-adv-x="1016" d="M51 881v485h934v-227l-379 -1139h-366l348 1044h-201v-233z" />
<glyph unicode="8" horiz-adv-x="1141" d="M86 268v195q0 195 195 250q-50 16 -82 37q-84 56 -84 200v148q0 111 22 159q50 109 250 109h367q209 0 253 -114q19 -51 19 -154v-148q0 -121 -55 -178q-32 -33 -111 -59q195 -55 195 -250v-195q0 -111 -23 -162q-48 -106 -252 -106h-422q-125 0 -184 35q-88 52 -88 233z M420 322h301v231h-301v-231zM449 856h243v188h-243v-188z" />
<glyph unicode="9" horiz-adv-x="1083" d="M86 297v57l334 47v-79h244v188h-306q-126 0 -184 33q-88 50 -88 235v320q0 109 23 159q50 109 249 109h367q211 0 255 -114q19 -51 19 -154v-830q0 -109 -24 -162q-48 -106 -250 -106h-367q-200 0 -250 107q-22 47 -22 190zM420 811h244v233h-244v-233z" />
<glyph unicode=":" horiz-adv-x="618" d="M102 82v287q0 65 40 77q17 5 44 5h258q72 0 81 -47q3 -15 3 -35v-287q0 -66 -39 -77q-17 -5 -45 -5h-258q-71 0 -81 46q-3 14 -3 36zM102 723v287q0 65 40 77q17 5 44 5h258q72 0 81 -47q3 -15 3 -35v-287q0 -65 -39 -77q-16 -5 -45 -5h-258q-71 0 -81 46q-3 14 -3 36z " />
<glyph unicode=";" horiz-adv-x="618" d="M102 82v287q0 65 40 77q17 5 44 5h258q72 0 81 -47q3 -15 3 -35v-324l-206 -426h-170l124 381h-90q-71 0 -81 46q-3 14 -3 36zM102 723v287q0 65 40 77q17 5 44 5h258q72 0 81 -47q3 -15 3 -35v-287q0 -65 -39 -77q-16 -5 -45 -5h-258q-71 0 -81 46q-3 14 -3 36z" />
<glyph unicode="?" horiz-adv-x="1073" d="M82 1012v53q0 166 67.5 233.5t233.5 67.5h358q166 0 233.5 -67.5t67.5 -233.5v-133q0 -73 -20 -103q-15 -17 -84 -65l-213 -148q-21 -14 -25 -38l-2 -11h-319v84q0 98 57 137l258 177v65h-264v-92zM354 82v287q0 65 40 77q16 5 44 5h201q71 0 81 -47q3 -14 3 -35v-287 q0 -66 -40 -77q-17 -5 -44 -5h-201q-71 0 -81 46q-3 14 -3 36z" />
<glyph unicode="@" horiz-adv-x="1821" d="M86 692q0 348 251 560q236 200 591 200q347 0 567 -177q240 -192 240 -530q0 -194 -105 -320q-111 -134 -301 -134q-185 0 -266 162q-101 -152 -258 -152q-127 0 -201 95q-67 87 -67 218q0 184 111 320q118 145 298 145q73 0 148 -35l4 41h205l-76 -516q0 -4 -1 -13 t-1 -13q0 -60 41 -103t100 -43q115 0 179 104q54 87 54 210q0 286 -181 457q-178 167 -466 167q-287 0 -471 -172q-188 -176 -188 -461q0 -281 201 -469q196 -184 479 -184q129 0 260 47q64 23 147 66l47 -90q-234 -135 -509 -135q-349 0 -584 200q-248 212 -248 555z M756 645q0 -205 133 -205q68 0 113 76q36 60 45 137l36 303q-60 35 -104 35q-110 0 -173 -125q-50 -100 -50 -221z" />
<glyph unicode="A" horiz-adv-x="1155" d="M-27 0l377 1366h441l393 -1366h-369l-70 287h-356l-65 -287h-351zM465 608h203l-105 424z" />
<glyph unicode="B" horiz-adv-x="1163" d="M113 0v1366h657q236 0 285 -128q22 -58 22 -173v-135q0 -94 -37.5 -143.5t-128.5 -77.5q174 -62 174 -254v-154q0 -123 -26 -180q-55 -121 -281 -121h-665zM461 336h244q30 0 30 31v131q0 32 -30 32h-244v-194zM461 852h235q31 0 31 31v116q0 31 -31 31h-235v-178z" />
<glyph unicode="C" horiz-adv-x="1161" d="M86 301v764q0 165 67 233t232 68h403q166 0 234 -67.5t68 -233.5v-152l-349 -73v190h-307v-694h307v221l349 -72v-184q0 -167 -67.5 -234t-234.5 -67h-403q-166 0 -232.5 67.5t-66.5 233.5z" />
<glyph unicode="D" horiz-adv-x="1159" d="M113 0v1366h655q234 0 283 -128q22 -58 22 -173v-764q0 -123 -26 -180q-55 -121 -279 -121h-655zM461 334h231q33 0 33 33v632q0 31 -33 31h-231v-696z" />
<glyph unicode="E" horiz-adv-x="983" d="M113 0v1366h813v-336h-465v-151h348v-322h-348v-221h477v-336h-825z" />
<glyph unicode="F" horiz-adv-x="922" d="M113 0v1366h796v-336h-448v-151h334v-322h-334v-557h-348z" />
<glyph unicode="G" horiz-adv-x="1176" d="M86 301v764q0 165 67 233t232 68h403q166 0 234 -67.5t68 -233.5v-59l-349 -74v98h-307v-694h307v147h-163v322h512v-504q0 -167 -67.5 -234t-234.5 -67h-403q-166 0 -232.5 67.5t-66.5 233.5z" />
<glyph unicode="H" horiz-adv-x="1257" d="M113 0v1366h348v-494h334v494h350v-1366h-350v551h-334v-551h-348z" />
<glyph unicode="I" horiz-adv-x="573" d="M113 0v1366h348v-1366h-348z" />
<glyph unicode="J" horiz-adv-x="1108" d="M41 301v309l348 72v-346h258v1030h348v-1065q0 -167 -67 -234t-234 -67h-352q-166 0 -233.5 67.5t-67.5 233.5z" />
<glyph unicode="K" horiz-adv-x="1157" d="M113 0v1366h348v-563l313 563h373l-393 -647l448 -719h-399l-342 596v-596h-348z" />
<glyph unicode="L" horiz-adv-x="887" d="M113 0v1366h348v-1030h405v-336h-753z" />
<glyph unicode="M" horiz-adv-x="1526" d="M113 0v1366h348l307 -569l297 569h348v-1366h-348v666l-270 -519h-66l-268 496v-643h-348z" />
<glyph unicode="N" horiz-adv-x="1294" d="M113 0v1366h348l373 -700v700h348v-1366h-348l-373 700v-700h-348z" />
<glyph unicode="O" horiz-adv-x="1202" d="M86 301v764q0 165 67 233t232 68h432q165 0 232 -68t67 -233v-764q0 -166 -66.5 -233.5t-232.5 -67.5h-432q-166 0 -232.5 67.5t-66.5 233.5zM434 336h334v694h-334v-694z" />
<glyph unicode="P" horiz-adv-x="1092" d="M113 0v1366h614q234 0 283 -128q22 -58 22 -173v-248q0 -122 -26 -180q-54 -121 -279 -121h-266v-516h-348zM461 838h190q33 0 33 30v131q0 31 -33 31h-190v-192z" />
<glyph unicode="Q" horiz-adv-x="1202" d="M86 301v764q0 165 67 233t232 68h432q165 0 232 -68t67 -233v-764q0 -166 -66.5 -233.5t-232.5 -67.5h-41l146 -358h-351l-143 358h-43q-166 0 -232.5 67.5t-66.5 233.5zM434 336h334v694h-334v-694z" />
<glyph unicode="R" horiz-adv-x="1149" d="M113 0v1366h614q234 0 283 -128q22 -58 22 -173v-248q0 -109 -17 -160q-25 -75 -104 -114l244 -543h-375l-207 516h-112v-516h-348zM461 838h190q33 0 33 30v131q0 31 -33 31h-190v-192z" />
<glyph unicode="S" horiz-adv-x="1198" d="M57 301v86l351 86v-151h356v215h-389q-166 0 -232.5 67.5t-66.5 233.5v227q0 165 67 233t232 68h424q165 0 233 -68t68 -233v-88l-350 -74v141h-326v-213h389q166 0 232.5 -67.5t66.5 -233.5v-229q0 -166 -66.5 -233.5t-232.5 -67.5h-455q-166 0 -233.5 67.5t-67.5 233.5 z" />
<glyph unicode="T" horiz-adv-x="1020" d="M14 1030v336h994v-336h-324v-1030h-348v1030h-322z" />
<glyph unicode="U" horiz-adv-x="1153" d="M98 301v1065h351v-1030h256v1030h348v-1065q0 -166 -66.5 -233.5t-232.5 -67.5h-355q-166 0 -233.5 67.5t-67.5 233.5z" />
<glyph unicode="V" horiz-adv-x="1128" d="M-27 1366h365l233 -756l234 756h352l-475 -1366h-236z" />
<glyph unicode="W" horiz-adv-x="1694" d="M0 1366h365l157 -635l156 635h352l158 -635l155 635h351l-379 -1366h-266l-201 715l-199 -715h-266z" />
<glyph unicode="X" horiz-adv-x="1149" d="M-27 0l422 705l-389 661h365l209 -354l213 354h350l-389 -649l424 -717h-365l-244 412l-245 -412h-351z" />
<glyph unicode="Y" horiz-adv-x="1112" d="M-27 1366h365l225 -438l225 438h353l-410 -741v-625h-348v614z" />
<glyph unicode="Z" horiz-adv-x="979" d="M27 0v242l454 788h-413v336h841v-229l-460 -801h489v-336h-911z" />
<glyph unicode="[" horiz-adv-x="741" d="M109 -358v2082h589v-182h-254v-1718h254v-182h-589z" />
<glyph unicode="]" horiz-adv-x="741" d="M45 -176h252v1718h-252v182h588v-2082h-588v182z" />
<glyph unicode="a" horiz-adv-x="971" d="M-14 0l307 1092h373l319 -1092h-313l-56 221h-280l-49 -221h-301zM401 498h148l-78 307z" />
<glyph unicode="b" horiz-adv-x="967" d="M98 0v1092h547q137 0 190.5 -51t53.5 -189v-109q0 -78 -29.5 -115t-105.5 -61q141 -49 141 -205v-122q0 -97 -21 -144q-43 -96 -223 -96h-553zM397 287h191q10 0 10 8v108q0 9 -10 9h-191v-125zM397 688h185q10 0 10 8v101q0 8 -10 8h-185v-117z" />
<glyph unicode="c" horiz-adv-x="954" d="M72 240v612q0 132 53.5 186t185.5 54h344q133 0 187.5 -53.5t54.5 -186.5v-121l-299 -63v137h-227v-518h227v164l299 -64v-147q0 -133 -54.5 -186.5t-187.5 -53.5h-344q-131 0 -185 54.5t-54 185.5z" />
<glyph unicode="d" horiz-adv-x="958" d="M98 0v1092h545q112 0 164 -31q80 -47 80 -209v-612q0 -97 -21 -144q-43 -96 -223 -96h-545zM397 287h183q10 0 10 8v502q0 8 -10 8h-183v-518z" />
<glyph unicode="e" horiz-adv-x="823" d="M98 0v1092h670v-287h-371v-88h281v-277h-281v-153h381v-287h-680z" />
<glyph unicode="f" horiz-adv-x="772" d="M98 0v1092h654v-287h-355v-88h267v-277h-267v-440h-299z" />
<glyph unicode="g" horiz-adv-x="969" d="M72 240v612q0 132 53.5 186t185.5 54h344q133 0 187.5 -53.5t54.5 -186.5v-51l-299 -62v66h-227v-518h227v84h-121v276h420v-407q0 -133 -54.5 -186.5t-187.5 -53.5h-344q-131 0 -185 54.5t-54 185.5z" />
<glyph unicode="h" horiz-adv-x="1044" d="M98 0v1092h299v-385h250v385h299v-1092h-299v432h-250v-432h-299z" />
<glyph unicode="i" horiz-adv-x="496" d="M98 0v1092h299v-1092h-299z" />
<glyph unicode="j" horiz-adv-x="936" d="M41 240v249l299 64v-266h184v805h299v-852q0 -132 -54.5 -186t-186.5 -54h-301q-132 0 -186 54t-54 186z" />
<glyph unicode="k" horiz-adv-x="963" d="M98 0v1092h299v-447l240 447h317l-305 -514l348 -578h-340l-260 475v-475h-299z" />
<glyph unicode="l" horiz-adv-x="733" d="M98 0v1092h299v-805h316v-287h-615z" />
<glyph unicode="m" horiz-adv-x="1268" d="M98 0v1092h299l242 -428l231 428h299v-1092h-299v498l-211 -392h-53l-209 373v-479h-299z" />
<glyph unicode="n" horiz-adv-x="1079" d="M98 0v1092h299l285 -523v523h297v-1092h-297l-285 524v-524h-299z" />
<glyph unicode="o" d="M72 240v612q0 132 53.5 186t185.5 54h367q133 0 186.5 -53.5t53.5 -186.5v-612q0 -132 -54 -186t-186 -54h-367q-131 0 -185 54.5t-54 185.5zM371 287h250v518h-250v-518z" />
<glyph unicode="p" horiz-adv-x="899" d="M98 0v1092h512q112 0 164 -31q80 -47 80 -209v-203q0 -101 -20 -145q-43 -94 -224 -94h-213v-410h-299zM397 686h150q10 0 10 6v105q0 8 -10 8h-150v-119z" />
<glyph unicode="q" d="M72 240v612q0 132 53.5 186t185.5 54h367q133 0 186.5 -53.5t53.5 -186.5v-612q0 -132 -54 -186t-186 -54h-31l117 -291h-301l-115 291h-37q-131 0 -185 54.5t-54 185.5zM371 287h250v518h-250v-518z" />
<glyph unicode="r" horiz-adv-x="958" d="M98 0v1092h512q112 0 164 -31q80 -47 80 -209v-203q0 -170 -84 -215l188 -434h-321l-154 410h-86v-410h-299zM397 686h150q10 0 10 6v105q0 8 -10 8h-150v-119z" />
<glyph unicode="s" horiz-adv-x="1004" d="M57 240v75l299 74v-115h279v144h-324q-132 0 -186.5 54.5t-54.5 186.5v193q0 133 54 186.5t187 53.5h371q133 0 186.5 -53.5t53.5 -186.5v-82l-297 -61v108h-256v-147h323q132 0 186 -54t54 -186v-190q0 -131 -54.5 -185.5t-185.5 -54.5h-393q-133 0 -187.5 53.5 t-54.5 186.5z" />
<glyph unicode="t" horiz-adv-x="842" d="M14 805v287h815v-287h-258v-805h-299v805h-258z" />
<glyph unicode="u" horiz-adv-x="952" d="M86 240v852h297v-805h186v805h297v-852q0 -132 -53.5 -186t-185.5 -54h-301q-133 0 -186.5 53.5t-53.5 186.5z" />
<glyph unicode="v" horiz-adv-x="944" d="M-14 1092h311l182 -566l178 566h301l-389 -1092h-194z" />
<glyph unicode="w" horiz-adv-x="1386" d="M0 1092h311l119 -465l115 465h305l119 -465l112 465h305l-311 -1092h-223l-158 545l-155 -545h-226z" />
<glyph unicode="x" horiz-adv-x="963" d="M-14 0l344 563l-316 529h310l161 -271l166 271h297l-315 -519l342 -573h-309l-189 313l-192 -313h-299z" />
<glyph unicode="y" horiz-adv-x="934" d="M-14 1092h311l176 -334l176 334h299l-332 -588v-504h-297v494z" />
<glyph unicode="z" horiz-adv-x="799" d="M20 0v217l357 588h-324v287h686v-207l-362 -598h389v-287h-746z" />
<glyph unicode="{" horiz-adv-x="860" d="M109 655v95q200 67 200 342q0 74 -12 155q-25 168 -25 199q0 289 334 289h172v-105q-170 -9 -170 -200q0 -29 23 -203q11 -85 12 -172q2 -242 -246 -355q142 -43 198 -144q48 -85 48 -245q0 -90 -12 -184q-23 -181 -23 -207q0 -182 170 -194v-101h-59q-54 0 -104 -1 l-48 -1q-293 0 -293 275q0 69 19.5 205.5t19.5 205.5q0 277 -204 346z" />
<glyph unicode="}" horiz-adv-x="860" d="M82 -274q168 12 168 194q0 55 -21 207q-14 101 -14 184q0 159 49 245q57 101 199 144q-248 113 -248 353q0 70 19 206q16 115 16 171q0 191 -168 200v105h172q334 0 334 -289q0 -31 -25 -199q-12 -81 -12 -155q0 -274 199 -342v-95q-203 -69 -203 -346q0 -93 16 -200 q21 -140 21 -211q0 -275 -291 -275q-98 2 -154 2h-57v101z" />
<glyph horiz-adv-x="1331" d="M86 424l61 217h103v82h-164l61 219h103v135q0 159 64 224t223 65h436q159 0 223 -65t64 -224v-164l-334 -71v202h-342v-102h280l-63 -219h-217v-82h194l-63 -217h-131v-102h342v233l334 -70v-198q0 -158 -64.5 -222.5t-222.5 -64.5h-436q-159 0 -223 64t-64 223v137h-164 z" />
<glyph horiz-adv-x="1135" d="M61 -342l146 1032h-131l35 252h131l16 123q21 165 99.5 233t244.5 68h205q129 0 190 -39q76 -48 76 -168q0 -36 -8 -94l-4 -29l-293 -47l2 17q2 17 2 26q0 55 -76 55h-30q-87 0 -97 -81l-8 -64h156l-35 -252h-158l-143 -1032h-320z" />
<glyph horiz-adv-x="1161" d="M109 727v252h346v387h252v-387h344v-252h-344v-1008h-252v1008h-346z" />
<glyph horiz-adv-x="1161" d="M109 268v250h346v246h-346v252h346v350h252v-350h344v-252h-344v-246h344v-250h-344v-549h-252v549h-346z" />
<glyph horiz-adv-x="2542" d="M86 791v421q0 85 34 119.5t118 34.5h272q85 0 119.5 -34.5t34.5 -119.5v-421q0 -86 -34 -120t-120 -34h-272q-85 0 -118.5 34.5t-33.5 119.5zM285 829h180v342h-180v-342zM401 0l813 1366h203l-815 -1366h-201zM1153 154v421q0 85 34.5 119.5t119.5 34.5h272 q84 0 119 -35t35 -119v-421q0 -84 -35 -119t-119 -35h-272q-85 0 -119.5 34.5t-34.5 119.5zM1352 193h180v344h-180v-344zM1901 154v421q0 84 34.5 119t118.5 35h273q84 0 118.5 -35t34.5 -119v-421q0 -84 -34.5 -119t-118.5 -35h-273q-84 0 -118.5 35t-34.5 119zM2101 193 h180v344h-180v-344z" />
<glyph horiz-adv-x="1638" d="M86 301v764q0 165 67 233t232 68h1196v-336h-465v-151h348v-322h-348v-221h477v-336h-1208q-166 0 -232.5 67.5t-66.5 233.5zM434 336h334v694h-334v-694z" />
<glyph horiz-adv-x="1167" d="M76 616v324l207 426h170l-125 -383h90q71 0 81 -46q3 -14 3 -36v-285q0 -67 -40 -79q-16 -5 -44 -5h-258q-68 0 -79 40q-5 18 -5 44zM651 616v324l207 426h170l-123 -383h88q71 0 81 -46q3 -14 3 -36v-285q0 -67 -40 -79q-16 -5 -44 -5h-258q-84 0 -84 84z" />
<glyph horiz-adv-x="1153" d="M76 997v285q0 48 18 66t66 18h258q84 0 84 -84v-324l-207 -426h-170l123 381h-88q-48 0 -66 18t-18 66zM651 997v285q0 84 84 84h258q48 0 66 -18t18 -66v-324l-207 -426h-170l125 381h-90q-84 0 -84 84z" />
<glyph horiz-adv-x="1225" d="M72 1253v113h422v-113h-152v-536h-119v536h-151zM616 717v649h119l154 -334l153 334h121v-649h-121v397l-139 -301h-29l-139 297v-393h-119z" />
<glyph unicode="&#xa2;" horiz-adv-x="926" d="M109 664v503q0 109 45 154t153 45h45v272h240v-272h49q109 0 154 -45t45 -154v-90l-281 -59v94h-174v-395h174v114l281 -57v-110q0 -110 -44.5 -154.5t-154.5 -44.5h-49v-393h-240v393h-45q-109 0 -153.5 44.5t-44.5 154.5z" />
<glyph unicode="&#xa3;" horiz-adv-x="1331" d="M86 0v322h180v217h-180v292h180v234q0 166 67.5 233.5t233.5 67.5h324q165 0 233 -68t68 -233v-168l-336 -70v217h-254v-213h193v-292h-193v-217h311v159l332 -69v-23l-2 -117q-3 -200 -120 -246q-66 -26 -249 -26h-788z" />
<glyph unicode="&#xa5;" horiz-adv-x="1290" d="M61 1366h365l225 -438l228 438h350l-242 -438h187v-238h-320l-35 -65v-93h355v-239h-355v-293h-348v293h-354v239h354v82l-41 76h-313v238h182z" />
<glyph unicode="&#xa7;" horiz-adv-x="1092" d="M430 586l96 96l-96 96l19 21l98 -97l96 97l19 -21l-97 -96l97 -96l-19 -19l-96 97l-98 -97z" />
<glyph unicode="&#xa9;" horiz-adv-x="1683" d="M109 678q0 299 205.5 507t504.5 208q296 0 503.5 -207.5t207.5 -503.5q0 -291 -205 -500t-496 -209q-299 0 -508 203q-212 205 -212 502zM178 682q0 -263 184.5 -452t446.5 -189q271 0 461 183.5t190 453.5t-185.5 458.5t-455.5 188.5q-268 0 -454.5 -187.5 t-186.5 -455.5zM530 430v498q0 107 44 150.5t151 43.5h190q108 0 152.5 -43.5t44.5 -150.5v-101l-164 -32v174h-256v-580h256v195l164 -35v-119q0 -109 -44 -151.5t-153 -42.5h-190q-108 0 -151.5 43t-43.5 151z" />
<glyph unicode="&#xab;" horiz-adv-x="979" d="M61 567l199 396h234l-199 -396l199 -397h-234zM485 567l199 396h234l-199 -396l199 -397h-234z" />
<glyph unicode="&#xad;" horiz-adv-x="702" d="M113 479v287h477v-287h-477z" />
<glyph unicode="&#xae;" horiz-adv-x="1372" d="M109 811q0 243 167.5 412.5t409.5 169.5t410 -168t168 -410q0 -236 -167 -405.5t-403 -169.5q-243 0 -414 164.5t-171 406.5zM182 815q0 -206 145 -355t351 -149q212 0 362 144.5t150 355.5q0 213 -146 360.5t-358 147.5q-210 0 -357 -147t-147 -357zM489 498v649h248 q83 0 113.5 -30t30.5 -113v-109q0 -61 -12 -86q-16 -34 -66 -49l-10 -2l135 -260h-131l-125 254h-62v-254h-121zM610 858h97q55 0 55 57v60q0 59 -55 59h-97v-176z" />
<glyph unicode="&#xb6;" horiz-adv-x="1092" d="M-66 881q0 129 53 237q57 117 163 176q129 72 354 72h653v-215h-117v-1729h-204v1729h-203v-1729h-205v998q-319 0 -435 215q-59 111 -59 246zM156 881q0 -119 58 -188q63 -75 179 -75h35v533h-6q-108 0 -166 -39q-100 -67 -100 -231z" />
<glyph unicode="&#xbb;" horiz-adv-x="979" d="M61 170l199 397l-199 396h234l199 -396l-199 -397h-234zM485 170l199 397l-199 396h234l199 -396l-199 -397h-234z" />
<glyph unicode="&#xc6;" horiz-adv-x="1794" d="M-27 0l729 1366h1033v-336h-463v-151h348v-322h-348v-221h477v-336h-825v270h-422l-129 -270h-400zM655 592h269v438h-60z" />
<glyph unicode="&#xe0;" horiz-adv-x="971" d="M-14 0l307 1092h373l319 -1092h-313l-56 221h-280l-49 -221h-301zM158 1610h250l215 -348h-170zM401 498h148l-78 307z" />
<glyph unicode="&#xe1;" horiz-adv-x="971" d="M-14 0l307 1092h373l319 -1092h-313l-56 221h-280l-49 -221h-301zM332 1262l215 348h250l-295 -348h-170zM401 498h148l-78 307z" />
<glyph unicode="&#xe2;" horiz-adv-x="971" d="M-14 0l307 1092h373l319 -1092h-313l-56 221h-280l-49 -221h-301zM164 1262l215 348h193l215 -348h-158l-154 182l-153 -182h-158zM401 498h148l-78 307z" />
<glyph unicode="&#xe3;" horiz-adv-x="971" d="M-14 0l307 1092h373l319 -1092h-313l-56 221h-280l-49 -221h-301zM160 1298q42 299 191 299q57 0 135 -41l57 -30q28 -15 55 -15q41 0 64 37q7 11 20 58h107q-29 -205 -98 -269q-42 -39 -88 -39q-47 0 -115 37l-53 29q-49 27 -88 27q-50 0 -70 -66q-2 -7 -8 -27h-109z M401 498h148l-78 307z" />
<glyph unicode="&#xe5;" horiz-adv-x="971" d="M-14 0l307 1092h373l319 -1092h-313l-56 221h-280l-49 -221h-301zM231 1477q0 105 70 177t174 72q102 0 174 -71.5t72 -173.5q0 -104 -71 -175t-175 -71q-102 0 -173 70t-71 172zM360 1483q0 -50 33.5 -84.5t83.5 -34.5q48 0 81.5 34.5t33.5 82.5q0 50 -33.5 82t-83.5 32 q-47 0 -81 -32.5t-34 -79.5zM401 498h148l-78 307z" />
<glyph unicode="&#xe7;" horiz-adv-x="954" d="M72 240v612q0 132 53.5 186t185.5 54h344q133 0 187.5 -53.5t54.5 -186.5v-121l-299 -63v137h-227v-518h227v164l299 -64v-147q0 -133 -54.5 -186.5t-187.5 -53.5h-118v-92h6q86 0 138 -43q56 -46 56 -131q0 -178 -223 -178q-76 0 -162 18l10 111q87 -15 111 -15 q96 0 96 66q0 71 -102 71q6 0 -39 -4v197h-117q-131 0 -185 54.5t-54 185.5z" />
<glyph unicode="&#xe8;" horiz-adv-x="823" d="M76 1610h250l215 -348h-170zM98 0v1092h670v-287h-371v-88h281v-277h-281v-153h381v-287h-680z" />
<glyph unicode="&#xe9;" horiz-adv-x="823" d="M98 0v1092h670v-287h-371v-88h281v-277h-281v-153h381v-287h-680zM317 1262l215 348h250l-295 -348h-170z" />
<glyph unicode="&#xea;" horiz-adv-x="823" d="M98 0v1092h670v-287h-371v-88h281v-277h-281v-153h381v-287h-680zM123 1262l215 348h193l215 -348h-158l-154 182l-153 -182h-158z" />
<glyph unicode="&#xeb;" horiz-adv-x="823" d="M98 0v1092h670v-287h-371v-88h281v-277h-281v-153h381v-287h-680zM123 1311v256h232v-256h-232zM525 1311v256h231v-256h-231z" />
<glyph unicode="&#xf1;" horiz-adv-x="1079" d="M98 0v1092h299l285 -523v523h297v-1092h-297l-285 524v-524h-299zM223 1298q42 299 191 299q57 0 135 -41l57 -30q28 -15 55 -15q41 0 64 37q7 11 20 58h107q-29 -205 -98 -269q-42 -39 -88 -39q-47 0 -115 37l-53 29q-49 27 -88 27q-50 0 -70 -66q-2 -7 -8 -27h-109z " />
<glyph unicode="&#xf2;" d="M72 240v612q0 132 53.5 186t185.5 54h367q133 0 186.5 -53.5t53.5 -186.5v-612q0 -132 -54 -186t-186 -54h-367q-131 0 -185 54.5t-54 185.5zM154 1610h250l215 -348h-170zM371 287h250v518h-250v-518z" />
<glyph unicode="&#xf3;" d="M72 240v612q0 132 53.5 186t185.5 54h367q133 0 186.5 -53.5t53.5 -186.5v-612q0 -132 -54 -186t-186 -54h-367q-131 0 -185 54.5t-54 185.5zM369 1262l215 348h250l-295 -348h-170zM371 287h250v518h-250v-518z" />
<glyph unicode="&#xf4;" d="M72 240v612q0 132 53.5 186t185.5 54h367q133 0 186.5 -53.5t53.5 -186.5v-612q0 -132 -54 -186t-186 -54h-367q-131 0 -185 54.5t-54 185.5zM182 1262l215 348h193l215 -348h-158l-154 182l-153 -182h-158zM371 287h250v518h-250v-518z" />
<glyph unicode="&#xf5;" d="M72 240v612q0 132 53.5 186t185.5 54h367q133 0 186.5 -53.5t53.5 -186.5v-612q0 -132 -54 -186t-186 -54h-367q-131 0 -185 54.5t-54 185.5zM182 1298q42 299 191 299q57 0 135 -41l57 -30q28 -15 55 -15q41 0 64 37q7 11 20 58h107q-29 -205 -98 -269q-42 -39 -88 -39 q-47 0 -115 37l-53 29q-49 27 -88 27q-50 0 -70 -66q-2 -7 -8 -27h-109zM371 287h250v518h-250v-518z" />
<glyph unicode="&#xf6;" d="M72 240v612q0 132 53.5 186t185.5 54h367q133 0 186.5 -53.5t53.5 -186.5v-612q0 -132 -54 -186t-186 -54h-367q-131 0 -185 54.5t-54 185.5zM178 1311v256h232v-256h-232zM371 287h250v518h-250v-518zM580 1311v256h231v-256h-231z" />
<glyph unicode="&#xf8;" d="M72 240v612q0 132 53.5 186t185.5 54h242l51 163h234l-56 -172q136 -35 136 -231v-612q0 -132 -54 -186t-186 -54h-242l-51 -164h-233l55 172q-135 40 -135 232zM371 287h250v518h-250v-518z" />
<glyph unicode="&#xf9;" horiz-adv-x="952" d="M86 240v852h297v-805h186v805h297v-852q0 -132 -53.5 -186t-185.5 -54h-301q-133 0 -186.5 53.5t-53.5 186.5zM121 1610h250l215 -348h-170z" />
<glyph unicode="&#xfa;" horiz-adv-x="952" d="M86 240v852h297v-805h186v805h297v-852q0 -132 -53.5 -186t-185.5 -54h-301q-133 0 -186.5 53.5t-53.5 186.5zM358 1262l215 348h250l-295 -348h-170z" />
<glyph unicode="&#xfb;" horiz-adv-x="952" d="M86 240v852h297v-805h186v805h297v-852q0 -132 -53.5 -186t-185.5 -54h-301q-133 0 -186.5 53.5t-53.5 186.5zM168 1262l215 348h193l215 -348h-158l-154 182l-153 -182h-158z" />
<glyph unicode="&#xfc;" horiz-adv-x="952" d="M86 240v852h297v-805h186v805h297v-852q0 -132 -53.5 -186t-185.5 -54h-301q-133 0 -186.5 53.5t-53.5 186.5zM164 1311v256h232v-256h-232zM566 1311v256h231v-256h-231z" />
<glyph unicode="&#xff;" horiz-adv-x="934" d="M-14 1092h311l176 -334l176 334h299l-332 -588v-504h-297v494zM159 1311v256h232v-256h-232zM561 1311v256h231v-256h-231z" />
<glyph unicode="&#x2000;" horiz-adv-x="867" />
<glyph unicode="&#x2001;" horiz-adv-x="1735" />
<glyph unicode="&#x2002;" horiz-adv-x="867" />
<glyph unicode="&#x2003;" horiz-adv-x="1735" />
<glyph unicode="&#x2004;" horiz-adv-x="578" />
<glyph unicode="&#x2005;" horiz-adv-x="433" />
<glyph unicode="&#x2006;" horiz-adv-x="289" />
<glyph unicode="&#x2007;" horiz-adv-x="289" />
<glyph unicode="&#x2008;" horiz-adv-x="216" />
<glyph unicode="&#x2009;" horiz-adv-x="347" />
<glyph unicode="&#x200a;" horiz-adv-x="96" />
<glyph unicode="&#x2010;" horiz-adv-x="702" d="M113 479v287h477v-287h-477z" />
<glyph unicode="&#x2011;" horiz-adv-x="702" d="M113 479v287h477v-287h-477z" />
<glyph unicode="&#x2012;" horiz-adv-x="702" d="M113 479v287h477v-287h-477z" />
<glyph unicode="&#x2013;" horiz-adv-x="1249" d="M113 479v287h1024v-287h-1024z" />
<glyph unicode="&#x2014;" horiz-adv-x="2273" d="M113 479v287h2048v-287h-2048z" />
<glyph unicode="&#x202f;" horiz-adv-x="347" />
<glyph unicode="&#x205f;" horiz-adv-x="433" />
<glyph unicode="&#x25fc;" horiz-adv-x="1090" d="M0 0v1090h1090v-1090h-1090z" />
</font>
</defs>
</svg>
